<svg xmlns="http://www.w3.org/2000/svg" viewBox="0 0 512 512">
  <defs>
    <linearGradient id="g" x1="80" y1="56" x2="432" y2="456" gradientUnits="userSpaceOnUse">
      <stop stop-color="#00d4ff"/>
      <stop offset=".48" stop-color="#6558ff"/>
      <stop offset="1" stop-color="#b83cff"/>
    </linearGradient>
    <filter id="s" x="-20%" y="-20%" width="140%" height="140%">
      <feDropShadow dx="0" dy="20" stdDeviation="22" flood-color="#111936" flood-opacity=".32"/>
    </filter>
  </defs>
  <rect x="34" y="34" width="444" height="444" rx="126" fill="#0b1020"/>
  <path filter="url(#s)" fill="url(#g)"
        d="M295 64 126 286c-18 24-1 58 29 58h94l-33 104c-8 27 26 44 43 21l127-174c18-25 1-59-30-59h-82l54-137c10-26-16-55-33-35Z"/>
  <path fill="#fff" fill-opacity=".9"
        d="m291 126-112 147c-7 9 0 22 11 22h126c10 0 17 12 11 21l-61 84 31-98c3-9-4-18-14-18h-83l91-158Z"/>
</svg>
